# xmcd CD database file
#
# Track frame offsets:
#	150
#	12549
#	25832
#	40568
#	55207
#	67510
#	84719
#	96767
#	110660
#	123503
#	136974
#	151846
#	168155
#	183607
#
# Disc length: 2685 seconds
#
# Revision: 0
# Processed by: cddbd v1.5.2PL0 Copyright (c) Steve Scherf et al.
# Submitted via: CDex 1.50
#
DISCID=ad0a7b0e
DTITLE=Various Artist - Mr. Music Country 08-2006
DYEAR=2006
DGENRE=Country
TTITLE0=George Jones - Busted
TTITLE1=Mike Siler - Kiss And Make Up
TTITLE2=Kina Lankford - If Your Heart Are Set On Leaving
TTITLE3=Bob Cheevers - Down Home Backwoods Hillbilly Fool
TTITLE4=Will Taylor - Amber Amnesia
TTITLE5=Rhonda Vincent and Charlie Louvin - New Dreams And Sunshine
TTITLE6=Casey Beathard - I Stand Corrected
TTITLE7=Willie Carver - You Comb Her Hair
TTITLE8=Two Tons Of Steel - Back Door
TTITLE9=Synnöve Aanensen - I Saw The Light
TTITLE10=Michael Weston King - My Heart Stopped Today
TTITLE11=Genevieve Spalding - In God's Hands
TTITLE12=Taylor Made Band - Miles And Miles Of Texas
TTITLE13=Sunny Sweeney - 16th Avenue
EXTD=YEAR: 2006
EXTT0=
EXTT1=
EXTT2=
EXTT3=
EXTT4=
EXTT5=
EXTT6=
EXTT7=
EXTT8=
EXTT9=
EXTT10=
EXTT11=
EXTT12=
EXTT13=
PLAYORDER=
